<svg xmlns="http://www.w3.org/2000/svg" width="192" height="192"
     style="width:100%;height:100%;transform:translate3d(0,0,0);content-visibility:visible" viewBox="0 0 192 192">
    <defs>
        <clipPath id="a">
            <path d="M0 0h192v192H0z"/>
        </clipPath>
        <clipPath id="c">
            <path d="M0 0h192v192H0z"/>
        </clipPath>
        <clipPath id="b">
            <path d="M0 0h192v192H0z"/>
        </clipPath>
    </defs>
    <g clip-path="url(#a)">
        <g clip-path="url(#b)" style="display:block">
            <g style="display:none">
                <path fill="#c4c4c4"
                      d="M69.335 170.196c10.524 0 19.056-8.532 19.056-19.056s-8.532-19.056-19.056-19.056-19.056 8.532-19.056 19.056 8.532 19.056 19.056 19.056"
                      class="secondary"/>
                <path fill="none" stroke="#c4c4c4" stroke-linecap="round" stroke-linejoin="round" stroke-width="1.004"
                      d="M69.335 170.196c10.524 0 19.056-8.532 19.056-19.056s-8.532-19.056-19.056-19.056-19.056 8.532-19.056 19.056 8.532 19.056 19.056 19.056"
                      class="secondary"/>
            </g>
            <g style="display:none">
                <path fill="#c4c4c4"
                      d="M70.924 55.112c10.524 0 19.056-8.532 19.056-19.056S81.448 17 70.924 17s-19.056 8.532-19.056 19.056S60.4 55.112 70.924 55.112"
                      class="secondary"/>
                <path fill="none" stroke="#c4c4c4" stroke-linecap="round" stroke-linejoin="round" stroke-width="1.004"
                      d="M70.924 55.112c10.524 0 19.056-8.532 19.056-19.056S81.448 17 70.924 17s-19.056 8.532-19.056 19.056S60.4 55.112 70.924 55.112"
                      class="secondary"/>
            </g>
            <g style="display:none">
                <path fill="#c4c4c4"
                      d="M139.802 76.025c10.524 0 19.056-8.532 19.056-19.056s-8.532-19.056-19.056-19.056-19.056 8.532-19.056 19.056 8.532 19.056 19.056 19.056"
                      class="secondary"/>
                <path fill="none" stroke="#c4c4c4" stroke-linecap="round" stroke-linejoin="round" stroke-width="1.004"
                      d="M139.802 76.025c10.524 0 19.056-8.532 19.056-19.056s-8.532-19.056-19.056-19.056-19.056 8.532-19.056 19.056 8.532 19.056 19.056 19.056"
                      class="secondary"/>
            </g>
            <path fill="none" stroke="#282829" stroke-linecap="round" stroke-linejoin="round" stroke-width="3.003"
                  d="M0 19.056c10.524 0 19.056-8.532 19.056-19.056S10.524-19.056 0-19.056-19.056-10.524-19.056 0-10.524 19.056 0 19.056"
                  class="primary" style="display:none" transform="translate(65.076 152.979)"/>
            <path fill="none" stroke="#282829" stroke-linecap="round" stroke-linejoin="round" stroke-width="3.003"
                  d="M0 19.056c10.524 0 19.056-8.532 19.056-19.056S10.524-19.056 0-19.056-19.056-10.524-19.056 0-10.524 19.056 0 19.056"
                  class="primary" style="display:none" transform="translate(64.805 37.854)"/>
            <path fill="none" stroke="#282829" stroke-linecap="round" stroke-linejoin="round" stroke-width="3.003"
                  d="M0 19.056c10.524 0 19.056-8.532 19.056-19.056S10.524-19.056 0-19.056-19.056-10.524-19.056 0-10.524 19.056 0 19.056"
                  class="primary" style="display:none" transform="translate(134.696 58.351)"/>
            <path fill="none" stroke="#282829" stroke-linecap="round" stroke-linejoin="round" stroke-width="3"
                  d="M134.57 78.824c-.02 9.154-.036 18.398-.003 20.574.223 14.906-9.055 24.328-30.224 24.33-5.247 0-30.247-.234-38.304-.134"
                  class="primary" style="display:none"/>
            <path fill="none" stroke="#282829" stroke-linecap="round" stroke-linejoin="round" stroke-width="3.002"
                  d="M38.289.033c-13.33 0-58.991-.121-76.578-.036" class="primary" style="display:none"
                  transform="matrix(0 1 1 0 65.131 95.307)"/>
            <path fill="none" stroke="#282829" stroke-linecap="round" stroke-linejoin="round" stroke-width="2"
                  d="M5.238 8.792C-3.091 7.603-7.455-2.194-3.782-8.671" class="primary" style="display:none"
                  transform="translate(58.275 155.788)"/>
            <path fill="none" stroke="#282829" stroke-linecap="round" stroke-linejoin="round" stroke-width="2"
                  d="M-9.649 11.576C-9.313-3.637 3.386-11.47 9.424-11.87" class="primary" style="display:none"
                  transform="translate(47.017 24.969)"/>
            <path fill="none" stroke="#282829" stroke-linecap="round" stroke-linejoin="round" stroke-width="2"
                  d="M11.264 8.106C3.026 8.229-6.733 5.051-10.937-7.218" class="primary" style="display:none"
                  transform="rotate(-90 125.824 -9.457)"/>
            <g style="display:block">
                <path fill="#c4c4c4"
                      d="M69.335 170.196c10.524 0 19.056-8.532 19.056-19.056s-8.532-19.056-19.056-19.056-19.056 8.532-19.056 19.056 8.532 19.056 19.056 19.056"
                      class="secondary"/>
                <path fill="none" stroke="#c4c4c4" stroke-linecap="round" stroke-linejoin="round" stroke-width="1.004"
                      d="M69.335 170.196c10.524 0 19.056-8.532 19.056-19.056s-8.532-19.056-19.056-19.056-19.056 8.532-19.056 19.056 8.532 19.056 19.056 19.056"
                      class="secondary"/>
            </g>
            <g style="display:block">
                <path fill="#c4c4c4"
                      d="M70.923 55.111c10.524 0 19.056-8.532 19.056-19.056s-8.532-19.056-19.056-19.056-19.056 8.532-19.056 19.056 8.532 19.056 19.056 19.056"
                      class="secondary"/>
                <path fill="none" stroke="#c4c4c4" stroke-linecap="round" stroke-linejoin="round" stroke-width="1.004"
                      d="M70.923 55.111c10.524 0 19.056-8.532 19.056-19.056s-8.532-19.056-19.056-19.056-19.056 8.532-19.056 19.056 8.532 19.056 19.056 19.056"
                      class="secondary"/>
            </g>
            <g style="display:block">
                <path fill="#c4c4c4"
                      d="M139.802 76.025c10.524 0 19.056-8.532 19.056-19.056s-8.532-19.056-19.056-19.056-19.056 8.532-19.056 19.056 8.532 19.056 19.056 19.056"
                      class="secondary"/>
                <path fill="none" stroke="#c4c4c4" stroke-linecap="round" stroke-linejoin="round" stroke-width="1.004"
                      d="M139.802 76.025c10.524 0 19.056-8.532 19.056-19.056s-8.532-19.056-19.056-19.056-19.056 8.532-19.056 19.056 8.532 19.056 19.056 19.056"
                      class="secondary"/>
            </g>
            <path fill="none" stroke="#282829" stroke-linecap="round" stroke-linejoin="round" stroke-width="3.003"
                  d="M0 19.056c10.524 0 19.056-8.532 19.056-19.056S10.524-19.056 0-19.056-19.056-10.524-19.056 0-10.524 19.056 0 19.056"
                  class="primary" style="display:block" transform="translate(65.076 152.979)"/>
            <path fill="none" stroke="#282829" stroke-linecap="round" stroke-linejoin="round" stroke-width="3.003"
                  d="M0 19.056c10.524 0 19.056-8.532 19.056-19.056S10.524-19.056 0-19.056-19.056-10.524-19.056 0-10.524 19.056 0 19.056"
                  class="primary" style="display:block" transform="translate(64.805 37.854)"/>
            <path fill="none" stroke="#282829" stroke-linecap="round" stroke-linejoin="round" stroke-width="3.003"
                  d="M0 19.056c10.524 0 19.056-8.532 19.056-19.056S10.524-19.056 0-19.056-19.056-10.524-19.056 0-10.524 19.056 0 19.056"
                  class="primary" style="display:block" transform="translate(134.696 58.351)"/>
            <path fill="none" stroke="#282829" stroke-linecap="round" stroke-linejoin="round" stroke-width="3"
                  d="M134.57 78.824c-.02 9.154-.036 18.398-.003 20.574.223 14.906-9.055 24.328-30.224 24.33-5.247 0-30.247-.234-38.304-.134"
                  class="primary" style="display:block"/>
            <path fill="none" stroke="#282829" stroke-linecap="round" stroke-linejoin="round" stroke-width="3.002"
                  d="M38.289.033c-13.33 0-58.991-.121-76.578-.036" class="primary" style="display:block"
                  transform="matrix(0 1 1 0 65.131 95.307)"/>
            <path fill="none" stroke="#282829" stroke-linecap="round" stroke-linejoin="round" stroke-width="2"
                  d="M5.238 8.792C-3.091 7.603-7.455-2.194-3.782-8.671" class="primary" style="display:block"
                  transform="translate(58.275 155.788)"/>
            <path fill="none" stroke="#282829" stroke-linecap="round" stroke-linejoin="round" stroke-width="2"
                  d="M-9.649 11.576C-9.313-3.637 3.386-11.47 9.424-11.87" class="primary" style="display:block"
                  transform="translate(47.017 24.969)"/>
            <path fill="none" stroke="#282829" stroke-linecap="round" stroke-linejoin="round" stroke-width="2"
                  d="M11.264 8.106C3.026 8.229-6.733 5.051-10.937-7.218" class="primary" style="display:block"
                  transform="rotate(-90 125.824 -9.457)"/>
        </g>
        <g clip-path="url(#c)" style="display:none">
            <g style="display:none">
                <path class="secondary"/>
                <path fill="none" class="secondary"/>
            </g>
            <g style="display:none">
                <path class="secondary"/>
                <path fill="none" class="secondary"/>
            </g>
            <g style="display:none">
                <path class="secondary"/>
                <path fill="none" class="secondary"/>
            </g>
            <path fill="none" class="primary" style="display:none"/>
            <path fill="none" class="primary" style="display:none"/>
            <path fill="none" class="primary" style="display:none"/>
            <path fill="none" class="primary" style="display:none"/>
            <path fill="none" class="primary" style="display:none"/>
            <path fill="none" class="primary" style="display:none"/>
            <path fill="none" class="primary" style="display:none"/>
            <path fill="none" class="primary" style="display:none"/>
        </g>
    </g>
</svg>