<svg xmlns="http://www.w3.org/2000/svg" width="192" height="192" style="width:100%;height:100%;transform:translate3d(0,0,0);content-visibility:visible" viewBox="0 0 192 192"><defs><mask id="M" mask-type="alpha"><use xmlns:ns1="http://www.w3.org/1999/xlink" ns1:href="#a"/></mask><mask id="K" mask-type="alpha"><use xmlns:ns2="http://www.w3.org/1999/xlink" ns2:href="#b"/></mask><mask id="I" mask-type="alpha"><use xmlns:ns3="http://www.w3.org/1999/xlink" ns3:href="#c"/></mask><mask id="H" mask-type="alpha" maskUnits="userSpaceOnUse"><g filter="url(#d)"><path fill="#fff" d="M0 0h192v192H0z" opacity="0"/><use xmlns:ns4="http://www.w3.org/1999/xlink" ns4:href="#e"/></g></mask><mask id="E" mask-type="alpha"><use xmlns:ns5="http://www.w3.org/1999/xlink" ns5:href="#g"/></mask><mask id="D" mask-type="alpha"><use xmlns:ns6="http://www.w3.org/1999/xlink" ns6:href="#h"/></mask><mask id="C" mask-type="alpha"><use xmlns:ns7="http://www.w3.org/1999/xlink" ns7:href="#i"/></mask><mask id="A" mask-type="alpha" maskUnits="userSpaceOnUse"><g filter="url(#k)"><path fill="#fff" d="M0 0h192v192H0z" opacity="0"/><use xmlns:ns8="http://www.w3.org/1999/xlink" ns8:href="#l"/></g></mask><mask id="x" mask-type="alpha"><use xmlns:ns9="http://www.w3.org/1999/xlink" ns9:href="#m"/></mask><mask id="w" mask-type="alpha"><use xmlns:ns10="http://www.w3.org/1999/xlink" ns10:href="#n"/></mask><mask id="v" mask-type="alpha"><use xmlns:ns11="http://www.w3.org/1999/xlink" ns11:href="#o"/></mask><mask id="u" mask-type="alpha"><use xmlns:ns12="http://www.w3.org/1999/xlink" ns12:href="#p"/></mask><clipPath id="s"><path d="M0 0h192v192H0z"/></clipPath><clipPath id="F"><path d="M0 0h192v192H0z"/></clipPath><clipPath id="L"><path d="M0 0h192v192H0z"/></clipPath><clipPath id="J"><path d="M0 0h192v192H0z"/></clipPath><clipPath id="q"><path d="M0 0h192v192H0z"/></clipPath><clipPath id="G"><path d="M0 0h192v192H0z"/></clipPath><clipPath id="y"><path d="M0 0h192v192H0z"/></clipPath><clipPath id="r"><path d="M0 0h192v192H0z"/></clipPath><clipPath id="z"><path d="M0 0h192v192H0z"/></clipPath><clipPath id="t"><path d="M0 0h192v192H0z"/></clipPath><path id="a" style="display:none"/><path id="b" style="display:none"/><path id="c" style="display:none"/><path id="g" fill="red" d="M-62.812-33.789c.107-10.362 1.755-11.853 15.305-11.734 22.101.195 68.793-.472 93.168-.201 14.604.162 16.034 2.111 16.396 11.756.653 17.453.229 65.346.227 65.423-.001.044-.013.049-.076.05-.11.003-124.36-.18-124.258-.179.049.001.064-.001.065.05.001.075-1.002-48.123-.827-65.165" style="display:block" transform="translate(90.152 79.969)"/><path id="h" fill="red" d="M-62.812-33.789c.107-10.362 1.755-11.853 15.305-11.734 22.101.195 68.793-.472 93.168-.201 14.604.162 16.034 2.111 16.396 11.756.653 17.453.229 65.346.227 65.423-.001.044-.013.049-.076.05-.11.003-124.36-.18-124.258-.179.049.001.064-.001.065.05.001.075-1.002-48.123-.827-65.165" style="display:block" transform="translate(90.152 79.969)"/><path id="i" fill="red" d="M-62.812-33.789c.107-10.362 1.755-11.853 15.305-11.734 22.101.195 68.793-.472 93.168-.201 14.604.162 16.034 2.111 16.396 11.756.653 17.453.229 65.346.227 65.423-.001.044-.013.049-.076.05-.11.003-124.36-.18-124.258-.179.049.001.064-.001.065.05.001.075-1.002-48.123-.827-65.165" style="display:block" transform="translate(90.152 79.969)"/><path id="m" style="display:none"/><path id="n" style="display:none"/><path id="o" style="display:none"/><path id="p" style="display:none"/><filter id="d" width="100%" height="100%" x="0%" y="0%" filterUnits="objectBoundingBox"><feComponentTransfer in="SourceGraphic"><feFuncA tableValues="1.0 0.0" type="table"/></feComponentTransfer></filter><filter id="k" width="100%" height="100%" x="0%" y="0%" filterUnits="objectBoundingBox"><feComponentTransfer in="SourceGraphic"><feFuncA tableValues="1.0 0.0" type="table"/></feComponentTransfer></filter><g id="e" clip-path="url(#q)" style="display:none"><path style="display:none"/><path style="display:none"/></g><g id="l" fill="red" clip-path="url(#r)" style="display:block"><path d="M169.668 61.969c4.99.03 10.1 3.06 10.12 7.36.07 17.31.23 60.65.26 78.9.01 5.13-5.08 8.34-10.56 8.34-13.26.01-37.81-.04-50.71-.1-5.13-.02-9.91-3.29-9.91-8.22-.02-18.09-.03-62.01-.04-79.31 0-4.45 4.73-7.07 9.82-7.08 12.98-.03 37.89.05 51.02.11" style="display:block"/><path d="M42.728 2.371c1.383-3.242-.404-6.162-2.917-7.35-14.037-6.631-42.644-20.575-60.883-28.13-3.394-1.406-8.24.067-10.284 4.122-3.721 7.383-8.907 19.189-11.525 25.907-1.042 2.673.428 6.415 3.926 8.224 11.806 6.108 39.912 19.4 60.364 27.703 2.548 1.034 6.496 1.647 8.518-2.201 3.618-6.882 9.297-20.059 12.801-28.275" style="display:block" transform="rotate(64.652 -73.601 86.318)"/></g></defs><g clip-path="url(#s)"><g clip-path="url(#t)" style="display:none"><g mask="url(#u)" style="display:none"><path class="secondary"/><path fill="none" class="secondary"/></g><g mask="url(#v)" style="display:none"><path class="secondary"/><path fill="none" class="secondary"/></g><g mask="url(#w)" style="display:none"><path class="secondary"/><path fill="none" class="secondary"/></g><g mask="url(#x)" style="display:none"><path class="secondary"/><path fill="none" class="secondary"/></g><g style="display:none"><path class="secondary"/><path fill="none" class="secondary"/></g><path fill="none" class="primary" style="display:none"/><path fill="none" class="primary" style="display:none"/><path fill="none" class="primary" style="display:none"/><path fill="none" class="primary" style="display:none"/><path fill="none" class="primary" style="display:none"/><path fill="none" class="primary" style="display:none"/><path fill="none" class="primary" style="display:none"/><path fill="none" class="primary" style="display:none"/><path fill="none" class="primary" style="display:none"/><path fill="none" class="primary" style="display:none"/><path fill="none" class="primary" style="display:none"/><path fill="none" class="primary" style="display:none"/><path fill="none" class="primary" style="display:none"/><path fill="none" class="primary" style="display:none"/><path fill="none" class="primary" style="display:none"/><path fill="none" class="primary" style="display:none"/><path fill="none" class="primary" style="display:none"/><path fill="none" class="primary" style="display:none"/></g><g clip-path="url(#y)" style="display:block"><g style="display:block"><path fill="#c4c4c4" d="M159.829 68.39c-.456-.741-14.806-1.076-14.11.013 7.614 11.915 16.865 30.426 27.846 48.398.417.682.566-18.11.46-21.585-.054-1.8-8.208-17.073-14.196-26.825" class="secondary"/><path fill="none" stroke="#c4c4c4" stroke-linecap="round" stroke-linejoin="round" stroke-width=".996" d="M159.829 68.39c-.456-.741-14.806-1.076-14.11.013 7.614 11.915 16.865 30.426 27.846 48.398.417.682.566-18.11.46-21.585-.054-1.8-8.208-17.073-14.196-26.825" class="secondary"/></g><g style="display:block"><path fill="#c4c4c4" d="M45.185 76.436c-.387-.63-12.58-.914-11.989.011 6.47 10.124 14.33 25.852 23.66 41.122.354.58.481-15.387.391-18.34-.046-1.529-6.974-14.507-12.062-22.793" class="secondary"/><path fill="none" stroke="#c4c4c4" stroke-linecap="round" stroke-linejoin="round" stroke-width=".998" d="M45.185 76.436c-.387-.63-12.58-.914-11.989.011 6.47 10.124 14.33 25.852 23.66 41.122.354.58.481-15.387.391-18.34-.046-1.529-6.974-14.507-12.062-22.793" class="secondary"/></g><g clip-path="url(#z)" mask="url(#A)" style="display:block"><g mask="url(#C)" style="display:block"><path fill="#c4c4c4" d="M-65.417 48.672c-.485-.79-16.761-1.146-16.02.013 8.105 12.683 76.764 114.013 88.453 133.143.444.726-.012-19.862 1.989-22.975 2.155-3.353-68.048-99.8-74.422-110.181" class="secondary"/><path fill="none" stroke="#c4c4c4" stroke-linecap="round" stroke-linejoin="round" d="M-65.417 48.672c-.485-.79-16.761-1.146-16.02.013 8.105 12.683 76.764 114.013 88.453 133.143.444.726-.012-19.862 1.989-22.975 2.155-3.353-68.048-99.8-74.422-110.181" class="secondary"/></g><g mask="url(#D)" style="display:block"><path fill="#c4c4c4" d="M-17.917 36.875c-.485-.79-46.761-1.294-46.02-.135 8.105 12.683 89.811 124.958 101.5 144.088.444.726 1.975-53.474 1.975-53.474s-51.081-80.098-57.455-90.479" class="secondary"/><path fill="none" stroke="#c4c4c4" stroke-linecap="round" stroke-linejoin="round" d="M-17.917 36.875c-.485-.79-46.761-1.294-46.02-.135 8.105 12.683 89.811 124.958 101.5 144.088.444.726 1.975-53.474 1.975-53.474s-51.081-80.098-57.455-90.479" class="secondary"/></g><g mask="url(#E)" style="display:block"><path fill="#c4c4c4" d="M116.039 22.672c-.485-.79-16.761-1.146-16.02.013 8.105 12.683 76.764 114.013 88.453 133.143.444.726-.012-19.862 1.989-22.975 2.155-3.353-68.048-99.8-74.422-110.181" class="secondary"/><path fill="none" stroke="#c4c4c4" stroke-linecap="round" stroke-linejoin="round" d="M116.039 22.672c-.485-.79-16.761-1.146-16.02.013 8.105 12.683 76.764 114.013 88.453 133.143.444.726-.012-19.862 1.989-22.975 2.155-3.353-68.048-99.8-74.422-110.181" class="secondary"/></g><path fill="none" stroke="#282829" stroke-linecap="round" stroke-linejoin="round" stroke-width="3" d="M-62.812-33.789c.107-10.362 1.755-11.853 15.305-11.734 22.101.195 68.793-.472 93.168-.201 14.604.162 16.034 2.111 16.396 11.756.653 17.453 1.088 50.962.593 68.193-.282 9.813-2.876 10.795-16.946 11.123-24.465.569-69.658.505-93.077.271-11.273-.113-14.885.326-15.056-11.387-.253-17.322-.558-50.979-.383-68.021" class="primary" style="display:block" transform="translate(90.152 79.969)"/><path fill="none" stroke="#282829" stroke-linecap="round" stroke-linejoin="round" stroke-width="2.004" d="M61.558-.179C59.319-.073-57.979.129-61.558.179" class="primary" style="display:block" transform="translate(90.039 111.631)"/><path fill="none" stroke="#282829" stroke-linecap="round" stroke-linejoin="round" stroke-width="2.999" d="M8.786-14.512c.379 2.784 4.677 29.216 4.55 29.248-.163.041-26.72-.045-26.675-.292.472-2.579 4.182-25.434 4.901-29.19" class="primary" style="display:block" transform="translate(90.161 141.464)"/><path fill="none" stroke="#282829" stroke-linecap="round" stroke-linejoin="round" stroke-width="2.004" d="M10.332-.016C8.093.09-6.753-.062-10.332-.012" class="primary" style="display:block" transform="translate(90.071 117.351)"/><path fill="none" stroke="#282829" stroke-linecap="round" stroke-linejoin="round" stroke-width="2.001" d="M-.098 10.196c.013-10.304.035-19.323.033-21.022" class="primary" style="display:block" transform="rotate(90 42.277 84.26)"/><path fill="none" stroke="#282829" stroke-linecap="round" stroke-linejoin="round" stroke-width="2.001" d="M-.024 6.464C-.035.936-.047-4.485-.058-6.409" class="primary" style="display:block" transform="rotate(90 30.832 72.948)"/><path fill="none" stroke="#282829" stroke-linecap="round" stroke-linejoin="round" stroke-width="2" d="M37.179-.144c-24.454.013-59.88.032-74.33.242" class="primary" style="display:block" transform="translate(102.635 24.774)"/><path fill="none" stroke="#282829" stroke-linecap="round" stroke-linejoin="round" stroke-width="2" d="M19.238-.105C7.398-.007-8.087.068-19.168.1" class="primary" style="display:block" transform="translate(76.43 103.012)"/></g><path fill="none" stroke="#282829" stroke-linecap="round" stroke-linejoin="round" stroke-width="3" d="M-47.235-25.234c.023-4.989 3.058-10.097 7.356-10.114 17.312-.07 60.65-.229 78.897-.263 5.137-.01 8.338 5.085 8.341 10.56a14360 14360 0 0 1-.095 50.708c-.021 5.131-3.295 9.913-8.226 9.917-18.086.014-62.005.03-79.31.037-4.453.002-7.069-4.734-7.081-9.82-.031-12.981.057-37.887.118-51.025" class="primary" style="display:block" transform="rotate(90 17.614 126.823)"/><path fill="none" stroke="#282829" stroke-linecap="round" stroke-linejoin="round" stroke-width="2" d="M-38.492-22.449c.019-4.436 2.486-7.642 5.989-7.657 14.108-.062 49.425-.203 64.294-.234 4.187-.009 6.799 3.184 6.802 8.053.006 11.797-.034 33.624-.077 45.095-.017 4.563-2.525 7.496-6.543 7.499-14.738.012-50.528.026-64.631.033-3.629.001-5.921-2.89-5.931-7.413-.025-11.543.047-33.692.097-45.376" class="primary" style="display:block" transform="rotate(90 18.974 125.453)"/><path fill="none" stroke="#282829" stroke-linecap="round" stroke-linejoin="round" stroke-width="2.003" d="M7.014.035C3.563.031-2.905.016-7.014-.035" class="primary" style="display:block" transform="translate(144.412 150.573)"/><path fill="none" stroke="#282829" stroke-linecap="round" stroke-linejoin="round" stroke-width="2" d="M25.308.131c-14.509 0-30.606-.357-43.491-.238a322 322 0 0 0-7.125.143" class="primary" style="display:block" transform="matrix(1 0 0 -1 146.279 163.977)"/><path fill="none" stroke="#282829" stroke-linecap="round" stroke-linejoin="round" stroke-width="2.995" d="M42.728 2.371c1.383-3.242-.404-6.162-2.917-7.35-14.037-6.631-42.644-20.575-60.883-28.13-3.394-1.406-8.24.067-10.284 4.122-3.721 7.383-8.907 19.189-11.525 25.907-1.042 2.673.428 6.415 3.926 8.224 11.806 6.108 39.912 19.4 60.364 27.703 2.548 1.034 6.496 1.647 8.518-2.201 3.618-6.882 9.297-20.059 12.801-28.275" class="primary" style="display:block" transform="rotate(64.652 -73.601 86.318)"/><path fill="none" stroke="#282829" stroke-linecap="round" stroke-linejoin="round" stroke-width="2.002" d="M-1.182 4.143C-6.259 2.564-4.71-5.903 1.629-4.082c5.073 2.501 1.89 9.687-2.811 8.225" class="primary" style="display:block" transform="rotate(-19.528 442.533 -33.226)"/><path fill="none" stroke="#282829" stroke-linecap="round" stroke-linejoin="round" stroke-width="2.002" d="M3.135 1.036C-.041-.023-.564-.229-3.135-1.036" class="primary" style="display:block" transform="rotate(-19.528 253.083 -65.722)"/><path fill="none" stroke="#282829" stroke-linecap="round" stroke-linejoin="round" stroke-width="2.002" d="M-3.414 9.62c2.312-6.931 4.898-14.577 6.48-19.514" class="primary" style="display:block" transform="rotate(-19.528 382.863 .097)"/><path fill="none" stroke="#282829" stroke-linecap="round" stroke-linejoin="round" stroke-width="2" d="M17.764-.501C11.971-.394-10.371.484-17.764.501" class="primary" style="display:block" transform="translate(36.234 163.294)"/></g><g clip-path="url(#F)" style="display:none"><g clip-path="url(#G)" mask="url(#H)" style="display:none"><g mask="url(#I)" style="display:none"><path class="secondary"/><path fill="none" class="secondary"/></g><path fill="none" class="primary" style="display:none"/><path fill="none" class="primary" style="display:none"/><path fill="none" class="primary" style="display:none"/><path fill="none" class="primary" style="display:none"/><path fill="none" class="primary" style="display:none"/><path fill="none" class="primary" style="display:none"/><path fill="none" class="primary" style="display:none"/><path fill="none" class="primary" style="display:none"/></g><g clip-path="url(#J)" style="display:none"><g mask="url(#K)" style="display:none"><path class="secondary"/><path fill="none" class="secondary"/></g><path fill="none" class="primary" style="display:none"/><path fill="none" class="primary" style="display:none"/><path fill="none" class="primary" style="display:none"/><path fill="none" class="primary" style="display:none"/></g><g clip-path="url(#L)" style="display:none"><g mask="url(#M)" style="display:none"><path class="secondary"/><path fill="none" class="secondary"/></g><path fill="none" class="primary" style="display:none"/><path fill="none" class="primary" style="display:none"/><path fill="none" class="primary" style="display:none"/><path fill="none" class="primary" style="display:none"/><path fill="none" class="primary" style="display:none"/></g></g></g></svg>